<?xml version="1.0" encoding="utf-8"?>
<!-- Generator: Adobe Illustrator 26.0.1, SVG Export Plug-In . SVG Version: 6.00 Build 0)  -->
<svg version="1.1" id="Layer_1" xmlns="http://www.w3.org/2000/svg" xmlns:xlink="http://www.w3.org/1999/xlink" x="0px" y="0px"
	 viewBox="0 0 714 714" style="enable-background:new 0 0 714 714;" xml:space="preserve">
<style type="text/css">
	.st0{fill:#302719;}
	.st1{fill:#55382F;}
	.st2{fill:#E0A871;}
	.st3{fill:#684A3C;}
	.st4{fill:#F6E5C3;}
	.st5{fill:#9B5B36;}
	.st6{fill:#3A3629;}
	.st7{fill:#F6967D;}
	.st8{fill:#4D4D4F;}
	.st9{fill:#C2C76C;}
	.st10{fill:#D4D8D3;}
	.st11{fill:#F5846F;}
	.st12{fill:#AC1F23;}
	.st13{fill:#2E0B0C;}
	.st14{fill:#DBE0DC;}
	.st15{fill:#CDD3BB;}
	.st16{fill:#B4BCC2;}
	.st17{fill:#467082;}
	.st18{fill:#260A0E;}
	.st19{fill:#EF7C32;}
	.st20{fill:#956143;}
	.st21{fill:#FFCA5F;}
	.st22{fill:#D5D7D8;}
	.st23{fill:#4B4E21;}
	.st24{fill:#475137;}
	.st25{fill:#C1272D;}
	.st26{fill:#596A63;}
	.st27{fill:#5B7954;}
	.st28{fill:#FFCF01;}
	.st29{fill:#937963;}
	.st30{fill:#C6A9B5;}
	.st31{fill:#F8DB94;}
	.st32{fill:#F4BB3A;}
	.st33{fill:#00AAAD;}
	.st34{fill:#EF9D9C;}
	.st35{fill:#C0E5E7;}
	.st36{fill:#D0ECF4;}
	.st37{fill:#ACDEE0;}
	.st38{fill:#FCD2CA;}
	.st39{fill:#642D10;}
	.st40{fill:#F79433;}
	.st41{fill:#F4B331;}
	.st42{fill:#A64D2C;}
	.st43{fill:#B25538;}
	.st44{fill:#737144;}
	.st45{fill:#404A34;}
	.st46{fill:#5A3B00;}
	.st47{fill:#886F4B;}
	.st48{fill:#729897;}
	.st49{fill:#ECC19C;}
	.st50{fill:#297770;}
</style>
<g>
	<path class="st29" d="M575.5959473,147.7753296c-50.9462891-50.9467773-118.6836243-79.0043945-190.733429-79.0043945
		s-139.7871094,28.0576172-190.7338562,79.0043945c-50.9472656,50.9467773-79.0048828,118.6845703-79.0048828,190.734375
		c0,72.0493164,28.0576172,139.7866211,79.0048828,190.7338867
		c50.9467468,50.9472656,118.6840515,79.0048828,190.7338562,79.0048828s139.7871399-28.0576172,190.733429-79.0048828
		c50.9472656-50.9472656,79.0048828-118.6845703,79.0048828-190.7338867
		C654.6008301,266.4598999,626.5432129,198.7221069,575.5959473,147.7753296z M543.0852051,131.4161377
		c15.381958,11.7802124,29.4197998,25.227478,41.8378906,40.0778198v7.5300293
		c-6.0760498-7.6293945-12.6055908-14.9713745-19.6044922-21.9703369
		c-7.0795898-7.0796509-14.5092773-13.6802368-22.2333984-19.8154297V131.4161377z M497.2384949,103.2578735
		c15.1463928,7.2644653,29.4851379,15.9504395,42.8467102,25.8823242v5.7490234
		c-13.4562988-10.3677979-27.8011475-19.2997437-42.8467102-26.7219849V103.2578735z M495.7384949,264.4096069
		c0.828125,0,1.5-0.6713867,1.5-1.5V112.8079834c15.2234192,7.6784668,29.5732727,16.8432617,42.8467102,27.3183594v154.9492798
		c0,0.8286133,0.671875,1.5,1.5,1.5s1.5-0.6713867,1.5-1.5V142.5437012
		c15.5939941,12.6942139,29.6467285,27.2078247,41.8378906,43.2155762v96.7289429c0,0.8286133,0.671875,1.5,1.5,1.5
		s1.5-0.6713867,1.5-1.5v-92.7054443c30.5150146,41.7537231,48.5585938,93.1711426,48.5585938,148.7313232
		c0,139.296875-113.3271484,252.6240234-252.624054,252.6240234c-139.2973633,0-252.6239929-113.3271484-252.6239929-252.6240234
		c0-139.2973633,113.3266296-252.6240234,252.6239929-252.6240234c39.5564575,0,77.0133057,9.1479492,110.3808594,25.4249268
		v151.5946045C494.2384949,263.7382202,494.9103699,264.4096069,495.7384949,264.4096069z M384.8625183,599.2484741
		c-143.7719727,0-260.738739-116.9667969-260.738739-260.7387695S241.0905457,77.7709351,384.8625183,77.7709351
		c39.0397949,0,76.0942383,8.6403809,109.3759766,24.0841064v4.8471069
		c-34.0394897-16.2382812-71.5501099-24.8120728-110.3808594-24.8120728
		c-68.546875,0-132.9907227,26.6933594-181.4604187,75.1635742
		c-48.4702148,48.4697266-75.1635742,112.9135742-75.1635742,181.4604492s26.6933594,132.9912109,75.1635742,181.4609375
		c48.469696,48.4697266,112.9135437,75.1630859,181.4604187,75.1630859s132.9912415-26.6933594,181.460968-75.1630859
		s75.1630859-112.9140625,75.1630859-181.4609375c0-56.998291-18.4724121-111.1499023-52.5585938-155.6491089v-7.7103882
		c36.0560303,44.7315674,57.6777344,101.5614624,57.6777344,163.3551025
		C645.6008301,482.2816772,528.6340332,599.2484741,384.8625183,599.2484741z"/>
	<path class="st30" d="M165.6942139,460.0320435c-21.5523071-1.7685547-50.8883057,12.1601562-59.2299194,33.1096191
		c37.8597412,1.3405762,46.9310303,61.6516724,73.0969238,66.9262695
		c19.0632935,3.8428345,48.3154602-23.8504639,48.3154602-23.8504639S192.208374,462.2077026,165.6942139,460.0320435z"/>
	<path class="st30" d="M228.90802,443.0023804c-16.7497559-2.5994263-44.5181885,1.862854-52.2225342,17.7701416
		c22.9425049,7.1949463,46.7381897,65.4780884,56.9996033,68.8853149
		c14.4664001,4.8035889,39.5356445-23.5830688,39.5356445-23.5830688S249.5137939,446.2003174,228.90802,443.0023804z"/>
	<path class="st30" d="M282.6375732,437.1657715c-12.860321-3.7576294-33.5419312-3.392334-43.772522,6.2084351
		c15.9495239,9.8121948,35.461853,57.5570068,39.1256714,58.175415
		c12.7817688,2.1571655,29.4842529-21.4069824,29.4842529-21.4069824S298.4584656,441.7885132,282.6375732,437.1657715z"/>
	<path class="st30" d="M311.9503479,477.5437012c6.0483093,5.2056885,47.9389648-39.0165405,31.8923645-43.5123291
		c-13.0437622-3.654541-43.59198-5.211853-54.0893555,4.5390015
		C303.8965454,449.1497192,309.0957642,475.086731,311.9503479,477.5437012z"/>
	<path class="st31" d="M329.7106628,616.2697144c8.1243286-2.4432373-9.2973022-84.2541504-12.717865-95.6281738
		s-12.779541-18.6138916-20.9038696-16.1706543c-8.1242676,2.4432373-11.9374084,13.6444092-8.5168457,25.0184937
		C290.9926147,540.8633423,321.5863953,618.7130127,329.7106628,616.2697144z"/>
	<path class="st31" d="M340.3026733,614.3918457c7.8379211,0.1616821,12.7167664-77.4012451,12.9430542-88.3743896
		c0.2263489-10.9731445-8.4956055-24.298584-19.9164734-22.7650146
		c-7.7698669,1.0432739-15.1737366,9.9804077-12.3453369,20.5852051
		C335.8874512,579.7164917,332.4646912,614.2302246,340.3026733,614.3918457z"/>
	<path class="st31" d="M370.3236084,523.6264648c-6.4142761-1.0199585-14.4155579,4.3117065-14.6930847,13.4003296
		c-1.4623413,47.8898315-12.387085,74.4658813-6.2054138,76.458252c6.1817627,1.9924316,28.5005798-58.401062,31.2899475-67.055481
		C383.504425,537.7750854,379.7519226,525.1257324,370.3236084,523.6264648z"/>
	<path class="st31" d="M320.1022949,622.3685303c6.4486084-4.4580688-15.4435425-31.3587646-33.8339844-86.1890259
		c-3.4901733-10.4057007-14.5954895-13.7766113-21.651947-10.361084
		c-10.3722839,5.0204468-10.2973022,20.9463501-4.0559998,29.9743652
		C266.8016968,564.8208618,313.6536255,626.8266602,320.1022949,622.3685303z"/>
	<path class="st31" d="M311.9928284,626.6439209c4.0573425-5.0715942-19.7140503-21.2132568-47.3491211-60.3526001
		c-5.2445679-7.4279175-14.8594055-7.461792-19.6471252-3.072998c-7.0373535,6.4510498-3.1902161,19.0719604,3.9100952,24.7522583
		C256.006958,593.6508179,307.9355469,631.7155762,311.9928284,626.6439209z"/>
	<path class="st31" d="M355.5352783,616.361084c-5.9300842,0.7237549-19.7946167,1.3656006-24.922699,2.9077759
		c-5.1280518,1.5421753-17.0467224,8.6542358-22.392395,11.3214722c-1.4852295,0.7410889-2.2202759,2.4445801-1.7422485,4.0341797
		l2.2829895,7.5913696c0.6081848,2.0222778,2.8889465,3.0131836,4.7806091,2.074585
		c5.7597961-2.8579712,16.8653259-8.2385254,21.6826172-9.6872559s17.0484924-3.0863037,23.4292908-3.8793945
		c2.0956116-0.2605591,3.4514771-2.3450928,2.8432922-4.3673706l-2.2829895-7.5913696
		C358.7357178,617.1754761,357.1828918,616.1599731,355.5352783,616.361084z"/>
	<path class="st32" d="M226.2062073,360.2920532c0,0,0.0571899-0.0765991,0.146759-0.1972656
		c-13.2643433-7.5057373-27.8103638-8.3061523-40.6798096-2.0459595
		c-13.1380005,6.3908081-21.9904785,19.1688843-22.5527344,32.5531006
		c-0.276001,6.5684204,4.7278442,14.1896973,11.8950806,18.119812c4.6707153,2.5617676,14.2116699,5.6688843,25.6260986-2.3017578
		c9.4072876-6.5687256,10.9710083-15.7106934,9.2974243-22.0762939c-1.3276367-5.0472412-4.7199097-8.5516357-8.6408081-8.9271851
		c-5.5444336-0.5299072-11.5036621,4.9530029-16.3495483,15.0430298c-0.3643188,0.7583008-1.2746582,1.078064-2.0335083,0.7143555
		c-0.7558594-0.368103-1.0785522-1.2746582-0.7138062-2.0335083c7.4355469-15.4819946,15.3381958-17.1444702,19.3865967-16.7573853
		c5.2067261,0.4988403,9.6425171,4.8894043,11.2979126,11.1860962c1.8470459,7.0222778,0.2049561,17.875061-10.4996948,25.3500977
		c-12.7642822,8.9126587-23.5455322,5.3762817-28.8363037,2.4746704c-1.9645996-1.0776367-3.7754517-2.3856812-5.3903809-3.8583984
		c-5.1740112-4.7183838-8.3331909-11.126709-8.0838013-17.0618896c0.6085205-14.487915,10.1327515-28.2907104,24.2641602-35.1651611
		c13.9085083-6.765686,29.59729-5.8667603,43.8258362,2.3120117c4.4246216-6.1025391,14.684845-20.6868896,12.895874-22.3183594
		c-30.5282288-27.8399658-70.1737366-13.3670654-95.0762634,16.4258423
		c-18.9315796,22.6494141-18.0072021,55.9163208,4.2075806,76.1748657
		c22.2147827,20.258606,56.3482666,18.9995117,76.2391968-2.8121338
		C244.2912292,405.506958,242.4090576,380.7761841,226.2062073,360.2920532z"/>
	
		<ellipse transform="matrix(0.963715 -0.2669336 0.2669336 0.963715 -145.9948273 77.801239)" class="st33" cx="213.1776428" cy="575.9110718" rx="17.9481392" ry="17.948185"/>
	<circle class="st33" cx="164.5805664" cy="578.1095581" r="12.1049805"/>
	
		<ellipse transform="matrix(0.9870874 -0.1601826 0.1601826 0.9870874 -95.1088562 46.177536)" class="st33" cx="238.865036" cy="613.0082397" rx="7.2262712" ry="7.2263198"/>
	
		<ellipse transform="matrix(0.3826839 -0.9238794 0.9238794 0.3826839 -230.0991974 487.8392029)" class="st33" cx="250.0020599" cy="416.1035767" rx="8.2442598" ry="8.2442808"/>
	<circle class="st33" cx="97.7578125" cy="473.7056274" r="5.3874588"/>
	<path class="st34" d="M89.9025879,309.9633179c-9.717041,9.717041-15.0270996,29.6588745-8.3044434,42.3132935
		c16.213501-17.7952881,49.1687622,2.602356,62.4813232-7.9090576c9.6990356-7.6580811,8.3045044-33.2178955,8.3045044-33.2178955
		S101.8566284,298.0092773,89.9025879,309.9633179z"/>
	<path class="st34" d="M107.6369629,272.329895c-8.1453857,7.0480957-17.3984375,22.3388062-12.8571167,32.6115723
		c12.9180908-8.1598511,50.9437256,4.2687988,56.8131714,0.6968994c8.2747803-5.0355225,4.824707-28.8533325,4.824707-28.8533325
		S117.6575317,263.6591797,107.6369629,272.329895z"/>
	<path class="st34" d="M126.8964233,243.8937378c-7.1077271,4.6872559-15.4327393,14.8594971-14.9860229,23.763916
		c11.3115845-3.6952515,42.4696045,6.4768677,44.2753906,4.9556274c6.2998657-5.3071289,1.7471924-23.0880127,1.7471924-23.0880127
		S135.6403809,238.1275024,126.8964233,243.8937378z"/>
	<path class="st34" d="M158.5133667,246.288147c5.0090332-0.7908936,0.800354-39.2700806-7.9748535-33.3422852
		c-7.1331787,4.8184814-20.4459839,18.9816284-20.0361938,28.0770264
		C141.4431152,238.5183716,156.149231,246.661377,158.5133667,246.288147z"/>
	<path class="st35" d="M110.1851807,399.0372314c0,0,7.2510986-22.7335815,1.977417-25.2174072
		c-5.5407715-2.6095581-18.625,18.7004395-18.625,18.7004395s-19.3950195-13.4605713-23.5881348-8.1442871
		c-4.0321045,5.1119995,11.3953857,22.1411743,11.3953857,22.1411743s-21.9456787,14.2108154-19.1561279,20.3525391
		c3.2336426,7.1193237,30.1551514-6.0881348,30.1551514-6.0881348s12.5054932,29.4014893,20.1525879,25.9299927
		c6.5424805-2.9700928-0.8660889-29.6184692-0.8660889-29.6184692s21.3953857-1.574646,21.9300537-7.6283569
		C134.1715088,402.5452271,110.1851807,399.0372314,110.1851807,399.0372314z"/>
	<path class="st36" d="M211.6766357,264.9873047c-1.9759521-2.9813232-32.8726807,14.0177002-37.0465088,16.7840576
		c-4.1739502,2.7662964-5.9556885,7.4257202-3.9797363,10.4070435s6.9614258,3.1556396,11.1352539,0.3892822
		C185.9594727,289.8013916,213.6524658,267.9686279,211.6766357,264.9873047z"/>
	<path class="st36" d="M175.4338379,279.7711182c20.7370605-12.8232422,35.0839844-15.6468506,34.1943359-18.8300171
		c-0.8897705-3.1831055-32.7889404,4.2977905-37.2452393,5.543396c-4.4564209,1.2456055-8.7719727,6.3893433-6.7615967,10.8120117
		C166.9891357,280.3053589,171.498291,282.2047119,175.4338379,279.7711182z"/>
	<path class="st36" d="M176.5357666,264.1806641c19.5067139-5.2445679,31.5639648-4.0732422,31.6149902-6.8109131
		c0.0509033-2.7377319-27.043457-4.3875732-30.8762207-4.4589233c-3.8328857-0.0714111-8.480957,2.984314-7.9373779,6.97229
		C169.7070312,262.5961914,172.8337402,265.1759644,176.5357666,264.1806641z"/>
	<path class="st36" d="M215.3087158,268.1222534c-2.5849609-2.0595703-10.7749023,10.0537109-30.6640625,24.1565552
		c-3.7745361,2.6764526-3.7819824,7.5692749-1.5438232,10.0011597c3.2900391,3.574646,9.7087402,1.6040039,12.592041-2.0149536
		C198.5761719,296.6459961,217.8937988,270.1817627,215.3087158,268.1222534z"/>
	<path class="st36" d="M218.0223389,270.8743286c-2.5412598-1.0196533-6.1599121,10.5412598-18.5897217,26.463501
		c-2.3590088,3.0217285-1.2011719,6.9064941,1.1534424,8.3040771c3.4610596,2.0543823,8.0861816-1.0360718,9.5137939-4.593811
		C211.5273438,297.4902954,220.5635986,271.8939819,218.0223389,270.8743286z"/>
	<path class="st36" d="M224.9559021,268.0993042c-1.8552856-1.9765015-5.3799744-5.8032227-6.5516052-7.5709839
		s-3.3227539-6.5048218-4.4202881-8.9835205c-0.3604736-0.8140259-1.3669434-1.1072998-2.1091309-0.6154175l-2.7857666,1.8463135
		c-0.583252,0.3865967-0.8039551,1.1370239-0.5220947,1.7775269c1.0146484,2.3052368,2.9628906,7.8228149,4.210083,9.7046509
		c1.2473145,1.8818359,5.5698242,5.8257446,7.2976074,7.6583252c0.4801025,0.5091553,1.2572021,0.5982666,1.8405762,0.2116699
		l2.7857361-1.8463745C225.4431458,269.7896729,225.565155,268.7484131,224.9559021,268.0993042z"/>
	<path class="st37" d="M390.3614807,598.2609253l-0.1143188,0.1216431
		c8.3630371,6.0927734,18.1114502,7.7626343,27.2776184,4.5402222c9.3574524-3.2896118,16.3207397-11.2200928,17.7397156-20.2034302
		c0.6964417-4.4086304-2.0863037-9.937561-6.6149597-13.1450195c-2.9511719-2.0906372-9.1446838-4.9274902-17.4623718-0.4384155
		c-6.8551025,3.6994019-8.6199646,9.7437744-7.9857483,14.1671143c0.5033569,3.5072632,2.5189819,6.1343384,5.1343079,6.6922607
		c3.6982422,0.7880859,8.1434326-2.4468994,12.1956482-8.8756714c0.3045959-0.4831543,0.9434204-0.6280518,1.4269714-0.3237915
		c0.4812012,0.3069458,0.628418,0.9434204,0.3234253,1.4269409c-6.2176514,9.8641968-11.6767883,10.371521-14.3771667,9.7959595
		c-3.4729004-0.7409668-6.1235352-4.046814-6.7508545-8.4222412c-0.7002258-4.8796997,1.2504272-12.0717773,9.0509338-16.2817383
		c9.3013-5.0194702,16.2980042-1.796814,19.6409607,0.571228c1.2413025,0.8794556,2.3610229,1.9023438,3.3357849,3.0210571
		c3.1230774,3.5842896,4.7559204,8.1518555,4.1266479,12.135437c-1.5359802,9.7241211-9.0318909,18.2935181-19.0969238,21.8322144
		c-9.90625,3.482605-20.4177246,1.6574707-29.3787842-4.9641113c-3.458313,3.7721558-11.5113525,12.8115234-10.4315186,14.0507812
		c18.427002,21.1484375,46.2903442,14.4671631,65.4004211-3.6921387
		c14.5280457-13.8051758,16.4890137-36.3139038,3.0800781-51.703186
		c-13.4089661-15.3892212-36.5281677-17.1918335-51.6381531-4.0261841
		C381.6766357,566.3606567,381.0248108,583.1866455,390.3614807,598.2609253z"/>
	<path class="st38" d="M482.6232605,168.7821655c2.1757812,0.9193726,4.9830933-0.8047485,6.2701416-3.8509521
		c1.2871094-3.0461426,8.5568237-25.1713867,6.3809814-26.0906982c-2.1757812-0.9193726-12.9732666,19.715332-14.260376,22.7614746
		C479.7269592,164.6481323,480.4474182,167.862854,482.6232605,168.7821655z"/>
	<path class="st38" d="M492.6699524,137.3615723c-1.6517334-1.4269409-16.475708,14.3355713-18.4734497,16.6480103
		c-1.9977417,2.3123779-2.494873,6.7186279,0.2261353,8.4185791c1.8511353,1.1565552,5.026062,0.5556641,6.3034668-2.2203979
		C487.4569397,145.5801392,494.3216858,138.7885742,492.6699524,137.3615723z"/>
	<path class="st38" d="M475.6408386,151.2255859c8.8205566-10.0076294,15.883606-13.7648315,14.9122314-15.2900391
		c-0.9714355-1.5252686-16.4846191,7.4581909-18.6199341,8.8181763c-2.135376,1.3599854-3.5778809,4.7385864-1.8228149,6.7348022
		C471.3043518,152.8466187,473.9668884,153.1248169,475.6408386,151.2255859z"/>
	<path class="st38" d="M498.4177551,139.2397461c-2.1744385-0.1896973-2.2593994,9.4665527-8.0563965,24.4887085
		c-1.1001587,2.8509521,0.6820068,5.5463867,2.8015747,6.0675659c3.1156006,0.7661133,5.9285278-2.6616211,6.1941528-5.7058716
		C499.6226501,161.0458374,500.5922546,139.4294434,498.4177551,139.2397461z"/>
	<path class="st38" d="M500.915863,139.7636719c-1.770752,0.3665771,0.458374,8.0499268-0.5693359,21.3502808
		c-0.1950684,2.5241089,1.8603516,4.2393188,3.6663818,4.1488647c2.6547241-0.1329956,4.0718384-3.5222778,3.5585938-6.0013428
		C507.0582581,156.7823486,502.686676,139.3970337,500.915863,139.7636719z"/>
	<path class="st38" d="M489.7539368,134.2335205c1.3999634,0.8982544,4.4864502,3.2234497,5.8598633,3.803772
		c1.3733521,0.5802612,5.1920776,1.1726685,6.8119507,1.550415c0.4500732,0.1049194,0.9102783-0.1296997,1.0901489-0.5554199
		l0.8590088-2.0330811c0.2288818-0.541626-0.0841064-1.1592407-0.6563721-1.2940063
		c-1.7425537-0.4104004-5.0793457-1.2296143-6.3695068-1.7747192s-4.2033691-2.3667603-5.7122803-3.3301392
		c-0.4955444-0.3164062-1.1565552-0.1103516-1.385376,0.4312744l-0.8590698,2.0330811
		C489.2124329,133.4904175,489.3649597,133.9839478,489.7539368,134.2335205z"/>
	<path class="st38" d="M491.4683533,265.1345825c-1.862793-0.5517578-8.7946167,17.3051147-9.5670776,19.9130859
		c-0.7724609,2.6079102,0.1114502,5.1693726,1.9742432,5.7211304s3.9991455-1.1151123,4.7716064-3.7230225
		S493.3312073,265.6863403,491.4683533,265.1345825z"/>
	<path class="st38" d="M489.2038879,264.1647949c-1.4810181-1.0147705-12.151062,13.2293091-13.5717773,15.3027344
		c-1.4206543,2.0734253-1.4226685,5.72052,0.9573975,6.8603516c1.6192017,0.7753906,4.1591187-0.0070801,4.9484863-2.3933716
		C485.6971741,271.3607178,490.684845,265.1795654,489.2038879,264.1647949z"/>
	<path class="st38" d="M476.5572205,277.0594482c6.2911377-8.9893188,11.7194824-12.7084351,10.7855225-13.8659668
		c-0.934021-1.1575928-12.7894287,7.6088257-14.4100342,8.9163818c-1.6205444,1.3075562-2.489502,4.2014771-0.8718262,5.6720581
		C473.1614685,278.7824097,475.3632507,278.7654419,476.5572205,277.0594482z"/>
	<path class="st38" d="M494.0743103,265.1724854c-1.7947388,0.0444946-0.9780273,7.9448853-4.3377075,20.7554932
		c-0.6376343,2.4312134,1.0664062,4.4707642,2.8466797,4.7022705c2.6168823,0.340332,4.6015625-2.7195435,4.5392456-5.2321777
		C497.0602722,282.885376,495.8690491,265.1279907,494.0743103,265.1724854z"/>
	<path class="st38" d="M496.1642151,265.37146c-1.4136963,0.4620972,1.1134033,6.5376587,1.4939575,17.5031738
		c0.0722046,2.0810547,1.9096069,3.2943726,3.3775024,3.0546875c2.1576538-0.352356,3.0049438-3.2526855,2.3579102-5.2318726
		C502.7465515,278.7182007,497.5779724,264.9092407,496.1642151,265.37146z"/>
	<path class="st38" d="M486.5333557,261.8756714c1.2266846,0.6057129,3.9628906,2.2230225,5.1387329,2.5712891
		c1.1757812,0.3482666,4.3513794,0.4819946,5.710083,0.6420898c0.3775024,0.0444946,0.7321167-0.1895142,0.8400879-0.5540161
		l0.515564-1.7406006c0.1373291-0.4636841-0.1751099-0.9397583-0.6552734-0.9974365
		c-1.4619751-0.1755371-4.2644653-0.5388794-5.3690186-0.8660278c-1.1045532-0.3272095-3.6528931-1.5487671-4.9746094-2.1977539
		c-0.4341431-0.2131348-0.9554443,0.0159302-1.0928345,0.4796143l-0.515564,1.7406616
		C486.0225525,261.3179321,486.1925354,261.7073364,486.5333557,261.8756714z"/>
	<path class="st38" d="M537.5548096,223.2926636c-1.9102783,0.3537598,0.0170898,19.4116821,0.5123291,22.0861206
		c0.4952393,2.6744995,2.4453125,4.5557861,4.3557129,4.2020264c1.9102783-0.3536987,3.0574951-2.8085938,2.5622559-5.4830322
		C544.4898682,241.4232788,539.46521,222.9389038,537.5548096,223.2926636z"/>
	<path class="st38" d="M535.0968018,223.4562378c-1.7801514-0.2321167-4.8234863,17.3031006-5.1484375,19.7954102
		s1.3284912,5.743103,3.9665527,5.6785889c1.7947998-0.0438843,3.7028809-1.8938599,3.3232422-4.378479
		C535.237915,231.4598999,536.8770752,223.6883545,535.0968018,223.4562378z"/>
	<path class="st38" d="M532.9975586,223.4353638c-1.3575439-0.607605-7.9432373,12.5844727-8.7938232,14.4851074
		c-0.850708,1.9006348-0.3116455,4.8737183,1.7973633,5.4499512c1.4346924,0.3920288,3.3890381-0.6223145,3.6787109-2.6843872
		C531.2059326,229.8206177,534.3551025,224.0429688,532.9975586,223.4353638z"/>
	<path class="st38" d="M539.894043,222.1437378c-1.5789795,0.854187,2.7342529,7.5234985,5.5545654,20.463501
		c0.5351562,2.4558105,2.979248,3.4998779,4.6707764,2.8981934c2.4862061-0.8843994,2.8659668-4.5117188,1.670166-6.7224121
		C550.59375,236.5722656,541.4731445,221.2895508,539.894043,222.1437378z"/>
	<path class="st38" d="M541.8466797,221.3725586c-1.0499268,1.0534058,3.9592285,5.3203125,9.2749023,14.9187622
		c1.0087891,1.8215942,3.1967773,2.0689087,4.3959961,1.1890869c1.7628174-1.2931519,1.201416-4.262085-0.2733154-5.7321167
		C553.7694092,230.2783203,542.8967285,220.3190918,541.8466797,221.3725586z"/>
	<path class="st38" d="M531.6783447,222.628418c1.3679199-0.0170288,4.5401611,0.182373,5.7459717-0.0409546
		c1.2056885-0.2232666,4.0961914-1.5452881,5.3795166-2.0192871c0.3565674-0.1317139,0.5664062-0.5011597,0.4971924-0.874939
		l-0.3305664-1.7850342c-0.0880127-0.4755249-0.5825195-0.7579346-1.0366211-0.5913696
		c-1.3823242,0.5070801-4.0445557,1.4552002-5.1772461,1.664978c-1.1328125,0.2097168-3.9578857,0.277771-5.4302979,0.2993164
		c-0.4835205,0.0070801-0.8441162,0.4478149-0.7559814,0.9233398l0.3304443,1.7850342
		C530.9699707,222.3632812,531.2982178,222.6331177,531.6783447,222.628418z"/>
	<path class="st38" d="M535.4667969,184.5383301c1.3066406,0.5473633,2.9871826-0.4919434,3.75354-2.3213501
		s5.0858154-15.1131592,3.7790527-15.6605225c-1.3067627-0.5474243-7.744751,11.8488159-8.5111084,13.6782837
		C533.7219238,182.0641479,534.1600342,183.9909058,535.4667969,184.5383301z"/>
	<path class="st38" d="M530.3852539,175.6934814c-1.1939697,1.390625-1.4840088,4.0343628,0.151123,5.0489502
		c1.1124268,0.6902466,3.015625,0.3239746,3.7766113-1.3433838c4.0101318-8.7858276,8.1148682-12.8720093,7.121582-13.7248535
		C540.4412842,164.8214111,531.5792236,174.3028564,530.3852539,175.6934814z"/>
	<path class="st38" d="M531.24646,174.0210571c5.2718506-6.0186768,9.5012207-8.2852173,8.9157715-9.1982422
		s-9.8734131,4.5037231-11.1516113,5.3233643s-2.137207,2.8486938-1.0808105,4.0427856
		C528.6484375,175.0013428,530.2458496,175.163269,531.24646,174.0210571z"/>
	<path class="st38" d="M545.494751,181.6931763c0.1536865-1.826355,0.6953125-14.793335-0.6092529-14.9030762
		c-1.3045654-0.1098022-1.3376465,5.6820068-4.7868652,14.7028198c-0.6546631,1.7119141,0.4191895,3.3253174,1.6915283,3.6340332
		C543.6602783,185.5806885,545.3410645,183.5195923,545.494751,181.6931763z"/>
	<path class="st38" d="M546.3847656,167.0997314c-1.0614014,0.2231445,0.2897949,4.8273926-0.302124,12.8065796
		c-0.1123047,1.5142822,1.1236572,2.5392456,2.2067871,2.4816284c1.592041-0.0846558,2.4356689-2.1201172,2.123291-3.6060791
		S547.446167,166.8765259,546.3847656,167.0997314z"/>
	<path class="st38" d="M539.6798096,163.8034668c0.8413086,0.5361328,2.6968994,1.9251099,3.5216064,2.2705688
		c0.8248291,0.34552,3.116333,0.6937866,4.088623,0.9173584c0.2701416,0.0621338,0.5457764-0.0794678,0.652832-0.335144
		l0.5114746-1.2210083c0.1362305-0.3252563-0.0526123-0.6951294-0.3961182-0.7749023
		c-1.0458984-0.2429199-3.0487061-0.7280884-3.8236084-1.0526733c-0.7747803-0.324585-2.5253906-1.4117432-3.432251-1.9868164
		c-0.2978516-0.1888428-0.6938477-0.0640259-0.8300781,0.2612305l-0.5114746,1.2210083
		C539.3536377,163.3587646,539.4460449,163.65448,539.6798096,163.8034668z"/>
	<path class="st38" d="M585.8421631,285.4460449c-1.786499,0.7634277,4.2663574,18.9370117,5.335083,21.4381714
		c1.0688477,2.5011597,3.3835449,3.9099121,5.1700439,3.1465454c1.786499-0.7634277,2.3684082-3.4098511,1.2996826-5.9110107
		S587.6286621,284.6826782,585.8421631,285.4460449z"/>
	<path class="st38" d="M583.4796143,286.1437988c-1.7878418,0.163269-0.918457,17.9393311-0.6898193,20.4423218
		c0.2285156,2.5029907,2.5535889,5.3129883,5.1135254,4.6724854c1.7416992-0.435791,3.1984863-2.6586304,2.2840576-4.9998779
		C585.3695068,293.9224243,585.2674561,285.9805298,583.4796143,286.1437988z"/>
	<path class="st38" d="M581.4266357,286.5830078c-1.4576416-0.2956543-4.9953613,14.0181885-5.4093018,16.05896
		c-0.4138184,2.0407104,0.7629395,4.8236694,2.9468994,4.9241943c1.4858398,0.0684204,3.1706543-1.3491821,3.0018311-3.4246216
		C581.076416,293.2055664,582.8843994,286.8786621,581.4266357,286.5830078z"/>
	<path class="st38" d="M587.8731689,283.8128662c-1.3537598,1.1791382,4.3149414,6.7423706,9.8997803,18.7510376
		c1.0598145,2.2790527,3.6732178,2.7626953,5.1918945,1.8052979c2.2322998-1.4072876,1.8088379-5.0297241,0.157959-6.9249878
		C601.4720459,295.5489502,589.2269287,282.633728,587.8731689,283.8128662z"/>
	<path class="st38" d="M604.9536133,289.8238525c-1.7608643-1.1115112-14.5501709-8.4487305-15.3441162-7.190979
		c-0.7938232,1.2577515,5.0279541,4.3244629,12.31604,12.5263672c1.3831787,1.5565186,3.5721436,1.3188477,4.5496826,0.1978149
		C607.9121094,293.7093506,606.7144775,290.9353027,604.9536133,289.8238525z"/>
	<path class="st38" d="M579.064209,285.6312256c0.1494141,0.3495483,0.5286865,0.5410156,0.8985596,0.453186
		c1.3310547-0.31604,4.4699707-0.815979,5.5975342-1.2978516c1.1276855-0.4818726,3.6585693-2.4046021,4.8071289-3.1480713
		c0.3190918-0.206543,0.4428711-0.6129761,0.293457-0.9625244l-0.7132568-1.6693726
		c-0.1900635-0.4447021-0.734375-0.6119995-1.1409912-0.3500977c-1.237793,0.7974243-3.6278076,2.3053589-4.6871338,2.7579956
		c-1.0593262,0.4526978-3.8011475,1.1375732-5.2330322,1.480896c-0.4702148,0.112793-0.7255859,0.6217651-0.5355225,1.0664673
		L579.064209,285.6312256z"/>
	<path class="st34" d="M501.1763611,191.3760986c-1.7865601,0.7633667,4.2663574,18.9370117,5.335144,21.4381714
		c1.0687256,2.5011597,3.3834229,3.9099121,5.1699829,3.1464844c1.7865295-0.7633667,2.3684387-3.4098511,1.2997131-5.9110107
		C511.912384,207.548584,502.9629211,190.6126709,501.1763611,191.3760986z"/>
	<path class="st34" d="M498.8138123,192.0737915c-1.7879028,0.163269-0.918457,17.9393311-0.6898804,20.4423828
		c0.2285767,2.5029907,2.5536499,5.3129272,5.1135864,4.6724243c1.7416382-0.43573,3.1984863-2.6586304,2.2841187-4.9998169
		C500.7036438,199.852417,500.6016541,191.9105225,498.8138123,192.0737915z"/>
	<path class="st34" d="M496.7608948,192.5130005c-1.4577026-0.2955933-4.9954224,14.0182495-5.4093628,16.05896
		c-0.4138794,2.0407715,0.7630005,4.8236694,2.9468994,4.9242554c1.4857788,0.0683594,3.1705933-1.3491821,3.00177-3.4246826
		C496.410675,199.1356201,498.2185364,192.8086548,496.7608948,192.5130005z"/>
	<path class="st34" d="M503.2073059,189.7429199c-1.3537598,1.1791382,4.3150635,6.7423096,9.8997498,18.7510376
		c1.0599365,2.2789917,3.6732178,2.7626953,5.1920166,1.8052979c2.2322998-1.4072876,1.8087158-5.0297241,0.157959-6.9250488
		C516.8061523,201.4789429,504.5611267,188.5637207,503.2073059,189.7429199z"/>
	<path class="st34" d="M520.2878418,195.7538452c-1.7608643-1.1114502-14.5502014-8.4486694-15.3440857-7.190918
		c-0.7939453,1.2577515,5.0278931,4.3244629,12.3160095,12.5263062c1.3831787,1.5565796,3.5721436,1.3188477,4.5496826,0.197876
		C523.2463379,199.6393433,522.0487061,196.8653564,520.2878418,195.7538452z"/>
	<path class="st34" d="M494.398468,191.5612793c0.149353,0.3495483,0.5286255,0.5410156,0.8984985,0.453186
		c1.3310547-0.3161011,4.4699097-0.81604,5.5975952-1.2979126c1.1276245-0.4818115,3.6585693-2.4046021,4.8070068-3.1480103
		c0.3190918-0.206604,0.4428711-0.6130371,0.2935181-0.9625854l-0.7133179-1.6693726
		c-0.1900024-0.4447021-0.734375-0.6119385-1.1409302-0.3500977c-1.237793,0.7974243-3.6278687,2.3054199-4.6871948,2.7580566
		s-3.8010254,1.1375122-5.2329102,1.480896c-0.4702759,0.1127319-0.725647,0.6217651-0.5356445,1.0664673L494.398468,191.5612793z"
		/>
	<path class="st34" d="M539.5255127,297.362854c-1.3067627-0.5473633-7.744751,11.848877-8.5111084,13.6782837
		s-0.3282471,3.7562256,0.9783936,4.3035889c1.3067627,0.5474243,2.9873047-0.4918823,3.7536621-2.3212891
		S540.8322754,297.9102783,539.5255127,297.362854z"/>
	<path class="st34" d="M537.9606934,296.4806519c-0.9932861-0.8528442-9.8553467,8.6286621-11.0493164,10.0192871
		s-1.4840088,4.0343018,0.151123,5.0488892c1.1124268,0.6903076,3.015625,0.3240356,3.7766113-1.3433838
		C534.8491211,301.4196167,538.9539795,297.3334961,537.9606934,296.4806519z"/>
	<path class="st34" d="M527.7724609,304.8274536c5.2719727-6.0186768,9.5013428-8.2852173,8.9158936-9.1982422
		s-9.8734131,4.5037842-11.1516113,5.3234253c-1.2783203,0.8196411-2.137207,2.8486938-1.0808105,4.0427856
		C525.1745605,305.8077393,526.7719727,305.9697266,527.7724609,304.8274536z"/>
	<path class="st34" d="M541.4116211,297.5964966c-1.3045654-0.1097412-1.3377686,5.6820679-4.7868652,14.7028198
		c-0.6546631,1.7119751,0.4191895,3.3253174,1.6915283,3.6340332c1.8701172,0.4537964,3.5509033-1.6073608,3.7045898-3.4337158
		C542.1745605,310.6732178,542.7161865,297.7062988,541.4116211,297.5964966z"/>
	<path class="st34" d="M542.9108887,297.9061279c-1.0614014,0.2231445,0.2897949,4.8273926-0.302124,12.8065796
		c-0.1123047,1.5143433,1.1236572,2.5392456,2.2067871,2.4816895c1.5919189-0.0846558,2.4356689-2.1201172,2.123291-3.6060791
		C546.6263428,308.102356,543.97229,297.6829834,542.9108887,297.9061279z"/>
	<path class="st34" d="M536.2059326,294.6098633c0.8413086,0.5361938,2.6968994,1.9251099,3.5216064,2.2706299
		c0.8248291,0.34552,3.116333,0.6937866,4.088623,0.9173584c0.2701416,0.0620728,0.5456543-0.0795288,0.652832-0.335144
		l0.5114746-1.2210083c0.1362305-0.3253174-0.0526123-0.6951294-0.3961182-0.7749023
		c-1.0458984-0.242981-3.0487061-0.7281494-3.8236084-1.0527344c-0.7747803-0.3245239-2.5253906-1.4117432-3.432251-1.9868164
		c-0.2978516-0.1888428-0.6938477-0.0640259-0.8300781,0.2612305l-0.5115967,1.2210083
		C535.8797607,294.1651611,535.972168,294.4609375,536.2059326,294.6098633z"/>
	<path class="st34" d="M591.7039795,219.6506958c-1.3067627-0.5473633-7.744751,11.848877-8.5111084,13.6782837
		s-0.3283691,3.7562256,0.9783936,4.3035889c1.3067627,0.5474243,2.9873047-0.4918823,3.7536621-2.3212891
		S593.0106201,220.1981201,591.7039795,219.6506958z"/>
	<path class="st34" d="M590.1391602,218.7684937c-0.9934082-0.8528442-9.8554688,8.6286621-11.0493164,10.0192871
		c-1.1939697,1.390625-1.4840088,4.0343018,0.151123,5.0488892c1.1124268,0.6903076,3.015625,0.3240356,3.7766113-1.3433838
		C587.0275879,223.7074585,591.1324463,219.6213379,590.1391602,218.7684937z"/>
	<path class="st34" d="M579.9509277,227.1152954c5.2719727-6.0186768,9.5013428-8.2852173,8.9158936-9.1982422
		s-9.8734131,4.5037842-11.1516113,5.3234253c-1.2783203,0.8196411-2.137207,2.8486938-1.0809326,4.0427856
		C577.3530273,228.0955811,578.9504395,228.2575684,579.9509277,227.1152954z"/>
	<path class="st34" d="M593.5899658,219.8843384c-1.3045654-0.1097412-1.3376465,5.6820679-4.7868652,14.7028198
		c-0.654541,1.7119751,0.4193115,3.3253174,1.6915283,3.6340332c1.8701172,0.4537964,3.5510254-1.6073608,3.7045898-3.4337158
		C594.3529053,232.9610596,594.8946533,219.9941406,593.5899658,219.8843384z"/>
	<path class="st34" d="M599.1171875,231.8761597c-0.3123779-1.4859619-2.9664307-11.9053345-4.027832-11.6821899
		s0.2897949,4.8273926-0.302124,12.8065796c-0.1123047,1.5143433,1.1236572,2.5392456,2.206665,2.4816895
		C598.5859375,235.397583,599.4296875,233.3621216,599.1171875,231.8761597z"/>
	<path class="st34" d="M588.3843994,216.8977051c0.8413086,0.5361938,2.6967773,1.9251099,3.5216064,2.2706299
		s3.116333,0.6937866,4.088623,0.9173584c0.2701416,0.0620728,0.5456543-0.0795288,0.65271-0.335144l0.5115967-1.2210083
		c0.1362305-0.3253174-0.0526123-0.6951294-0.3961182-0.7749023c-1.0458984-0.242981-3.0488281-0.7281494-3.8236084-1.0527344
		c-0.7747803-0.3245239-2.5255127-1.4117432-3.432251-1.9868164c-0.2978516-0.1888428-0.6939697-0.0640259-0.8302002,0.2612305
		l-0.5114746,1.2210083C588.0582275,216.4530029,588.1506348,216.7487793,588.3843994,216.8977051z"/>
</g>
</svg>
